<svg xmlns="http://www.w3.org/2000/svg" version="1.0" viewBox="0 0 700 700"><path fill="#41a145" d="M342 1c-7.9 2.3-14.2 8.3-125.9 119.9-95.7 95.8-115.3 115.9-117.5 120.4-8 16.2.8 36.8 18.5 43.3 4 1.5 23.8 1.6 230.4 1.8 124.3 0 228-.2 230.4-.7 21.9-3.7 33.7-29.6 21.8-47.7-1.4-2-53.9-55.1-116.7-117.9C393.7 30.8 367.7 5.4 363.7 3.4 358.4.7 347.2-.6 342 1z"/><path fill="#f44133" d="M122.1 414.2c-6.7 1-11.5 3.5-17 8.9-10.5 10.3-12.5 27.1-4.8 38.8 1.3 2 53.8 55 116.7 117.9 88.5 88.5 115.5 114.9 119.3 116.9 9.5 4.8 22.9 3.8 31.2-2.2 3.4-2.5 224.8-223.7 230.2-230 3.9-4.6 7.2-14.3 6.8-20-.5-6.4-1.3-9.6-2.7-11.2-.7-.9-1.2-1.8-1-2 .5-.7-3.4-5.9-6.8-9.1-3.4-3.2-10-6.8-14.4-7.9-3.3-.8-451.7-.9-457.5-.1z"/></svg>